<?xml version="1.0" standalone="no"?>
<!DOCTYPE svg PUBLIC "-//W3C//DTD SVG 20010904//EN"
 "http://www.w3.org/TR/2001/REC-SVG-20010904/DTD/svg10.dtd">
<svg version="1.0" xmlns="http://www.w3.org/2000/svg"
 width="381.519461pt" height="450.659461pt" viewBox="0 0 381.519461 450.659461"
 preserveAspectRatio="xMidYMid meet">
<metadata>
Created by potrace 1.16, written by Peter Selinger 2001-2019
</metadata>
<g transform="translate(-0.135820,453.918652) scale(0.100000,-0.100000)"
fill="#18386e" stroke="none">
<path d="M1205 4533 c-11 -3 -25 -9 -30 -13 -6 -5 -44 -22 -85 -38 -41 -16
-146 -59 -232 -95 -87 -36 -158 -63 -158 -60 0 3 -6 0 -14 -6 -7 -6 -56 -29
-107 -49 -52 -21 -141 -58 -199 -81 -145 -59 -138 -56 -203 -85 -32 -14 -61
-26 -65 -26 -5 0 -27 -9 -50 -20 -22 -11 -46 -20 -52 -20 -6 0 -10 -10 -8 -21
2 -17 24 -31 88 -59 47 -20 120 -53 163 -73 42 -21 79 -37 81 -37 2 0 52 -22
110 -50 58 -27 108 -50 110 -50 3 0 49 -21 103 -46 179 -83 217 -100 358 -164
77 -34 145 -65 150 -69 6 -4 32 -16 59 -26 54 -20 35 -24 211 56 86 39 171 77
330 149 77 34 151 68 165 75 14 7 113 52 220 100 359 161 405 185 389 200 -8
8 -81 42 -164 75 -142 58 -178 73 -250 105 -69 29 -263 108 -300 122 -22 7
-53 20 -70 27 -67 30 -107 47 -274 115 -170 70 -213 79 -276 64z"/>
<path d="M2385 3675 c-38 -19 -74 -35 -78 -35 -15 0 -122 -53 -125 -62 -2 -4
-11 -8 -21 -8 -9 0 -41 -11 -69 -25 -29 -14 -96 -45 -150 -69 -89 -40 -176
-80 -307 -141 -27 -12 -74 -33 -102 -45 -29 -12 -53 -27 -53 -32 0 -5 -4 -7
-9 -3 -14 8 -23 -104 -19 -230 l3 -110 225 -7 c376 -12 543 -54 725 -183 104
-73 207 -201 241 -299 8 -21 18 -44 23 -50 17 -22 42 -116 36 -136 -4 -12 -2
-26 3 -33 47 -59 49 -523 2 -608 -5 -9 -6 -26 -4 -37 6 -22 -19 -104 -42 -140
-9 -13 -21 -38 -27 -55 -22 -58 -100 -161 -164 -217 -35 -30 -69 -60 -76 -66
-20 -18 -178 -92 -224 -105 -24 -7 -43 -16 -43 -20 0 -5 -7 -6 -15 -3 -8 4
-21 1 -29 -5 -7 -6 -27 -8 -45 -5 -20 4 -37 2 -47 -7 -12 -10 -78 -14 -273
-17 -147 -3 -259 -8 -262 -14 -3 -5 -6 -204 -5 -441 l1 -432 300 1 c337 0 525
6 525 15 0 4 12 9 28 12 47 9 246 59 267 67 11 4 44 17 74 29 29 12 59 21 65
21 20 0 279 135 332 173 28 20 56 37 63 37 6 0 11 5 11 10 0 6 5 10 10 10 11
0 38 21 78 63 14 15 30 27 35 27 18 0 227 229 227 249 0 6 7 14 15 17 8 4 15
10 15 15 0 6 9 19 20 31 11 12 20 30 20 40 0 10 6 21 14 24 8 3 24 29 36 57
13 29 26 54 29 57 10 7 48 100 56 138 3 17 11 32 15 32 8 0 23 45 50 150 6 25
12 52 13 60 1 8 5 17 8 20 13 10 39 194 39 271 0 43 5 81 10 84 12 7 7 262 -8
450 -9 109 -37 261 -52 280 -4 6 -13 37 -20 70 -7 33 -21 78 -32 100 -11 22
-26 60 -35 84 -8 24 -26 61 -40 82 -14 21 -22 43 -18 48 3 6 3 11 -2 11 -4 0
-21 23 -38 51 -44 74 -136 199 -146 199 -5 0 -9 6 -9 13 0 21 -210 220 -312
295 -54 40 -100 72 -102 72 -2 0 -32 16 -66 35 -34 19 -68 35 -75 35 -7 0 -15
3 -17 8 -3 8 -76 44 -128 62 -19 7 -48 19 -65 26 -37 16 -146 44 -171 44 -11
0 -50 -16 -89 -35z"/>
<path d="M267 3603 c-6 -12 16 -2813 22 -2813 3 0 6 -86 6 -191 0 -105 3 -193
7 -195 7 -5 150 67 176 88 7 6 15 8 18 5 3 -3 14 3 25 14 10 10 26 19 34 19 8
0 15 4 15 8 0 5 17 16 38 25 20 9 52 26 69 37 l33 19 11 -22 c7 -12 16 -24 20
-27 12 -8 59 -79 59 -89 0 -5 7 -11 15 -15 8 -3 21 -18 28 -33 6 -15 22 -39
34 -53 13 -14 23 -29 23 -34 0 -6 13 -24 29 -41 16 -16 31 -37 33 -45 2 -8 10
-22 19 -30 9 -8 27 -31 40 -50 65 -94 112 -151 122 -147 9 3 12 384 12 1592 0
1401 -2 1589 -15 1596 -28 15 -206 96 -490 224 -157 70 -303 136 -326 146 -45
21 -51 22 -57 12z"/>
</g>
</svg>
